<svg width="83" height="13" viewBox="0 0 83 13" fill="none" xmlns="http://www.w3.org/2000/svg">
<path d="M8.54102 10.2344C7.39648 10.2344 6.3457 10.0312 5.38867 9.625C5.18945 9.82422 4.94141 9.95508 4.64453 10.0176C4.35156 10.084 3.95898 10.1172 3.4668 10.1172C2.97852 10.1172 2.50391 10.0605 2.04297 9.94727C1.58203 9.83398 1.2168 9.69531 0.947266 9.53125C0.673828 9.36719 0.537109 9.20703 0.537109 9.05078C0.537109 8.96094 0.576172 8.88867 0.654297 8.83398C0.732422 8.7793 0.822266 8.75195 0.923828 8.75195C1.2832 8.75195 1.54883 8.69531 1.7207 8.58203C1.89648 8.46484 2.06445 8.25 2.22461 7.9375C2.38867 7.625 2.54688 7.26562 2.69922 6.85938C2.85156 6.44922 2.99219 6.06641 3.12109 5.71094C3.25391 5.35547 3.40234 4.99609 3.56641 4.63281C3.92969 3.83984 4.38477 3.3125 4.93164 3.05078C5.19336 2.92578 5.53516 2.83008 5.95703 2.76367C6.37891 2.69336 6.70898 2.6582 6.94727 2.6582C7.18945 2.6582 7.3457 2.66211 7.41602 2.66992C7.49023 2.67383 7.56445 2.68555 7.63867 2.70508C7.78711 2.74414 7.86133 2.82617 7.86133 2.95117C7.86133 3.03711 7.84375 3.11719 7.80859 3.19141C7.77734 3.26172 7.68945 3.41406 7.54492 3.64844C7.40039 3.88281 7.20898 4.37305 6.9707 5.11914C7.92383 5.06055 8.65234 4.86328 9.15625 4.52734C9.66016 4.1875 9.91211 3.75391 9.91211 3.22656C9.91211 2.51172 9.30664 2.10547 8.0957 2.00781C7.84961 1.98828 7.49023 1.97852 7.01758 1.97852C6.54492 1.97852 6.01953 2.03516 5.44141 2.14844C4.86328 2.25781 4.41016 2.37891 4.08203 2.51172C3.75781 2.64453 3.46484 2.76758 3.20312 2.88086C2.94141 2.99023 2.77344 3.04492 2.69922 3.04492C2.49609 3.04492 2.39453 2.97852 2.39453 2.8457C2.39453 2.70898 2.52148 2.54688 2.77539 2.35938C3.0293 2.17188 3.37891 1.98633 3.82422 1.80273C4.27344 1.61914 4.76953 1.44922 5.3125 1.29297C6.53906 0.941406 7.80664 0.765625 9.11523 0.765625C10.4238 0.765625 11.416 0.970703 12.0918 1.38086C12.7715 1.78711 13.1113 2.32617 13.1113 2.99805C13.1113 3.66992 12.7734 4.22852 12.0977 4.67383C11.4258 5.11914 10.502 5.36523 9.32617 5.41211C10.0801 5.41992 10.7734 5.60156 11.4062 5.95703C11.7109 6.125 11.959 6.3457 12.1504 6.61914C12.3418 6.89258 12.4375 7.20898 12.4375 7.56836C12.4375 7.92773 12.3613 8.26562 12.209 8.58203C12.0605 8.89453 11.8613 9.15234 11.6113 9.35547C11.3652 9.55859 11.0703 9.72656 10.7266 9.85938C10.0977 10.1094 9.36914 10.2344 8.54102 10.2344ZM6.80664 5.63477C6.73242 5.88086 6.58594 6.37891 6.36719 7.12891C6.14844 7.875 5.99609 8.375 5.91016 8.62891C5.82422 8.87891 5.7793 9.00781 5.77539 9.01562C5.90039 9.03125 6.09961 9.03906 6.37305 9.03906C6.65039 9.03906 6.95898 9.00195 7.29883 8.92773C7.64258 8.84961 7.94922 8.73242 8.21875 8.57617C8.49219 8.41992 8.70508 8.20898 8.85742 7.94336C9.01367 7.67773 9.0918 7.35547 9.0918 6.97656C9.0918 6.59766 8.87109 6.2832 8.42969 6.0332C7.98828 5.7832 7.44727 5.65039 6.80664 5.63477ZM19.0352 1.73828C19.0352 2.15625 18.8027 2.52148 18.3379 2.83398C17.877 3.14258 17.3887 3.29688 16.873 3.29688C16.3613 3.29688 15.9629 3.19336 15.6777 2.98633C15.3926 2.77539 15.25 2.51953 15.25 2.21875C15.25 1.91797 15.3594 1.64453 15.5781 1.39844C15.7969 1.15234 16.0801 0.958984 16.4277 0.818359C16.7793 0.677734 17.1602 0.607422 17.5703 0.607422C17.9805 0.607422 18.3262 0.716797 18.6074 0.935547C18.8926 1.15039 19.0352 1.41797 19.0352 1.73828ZM17.3887 9.00977C17.6543 9.00977 18.0137 8.94727 18.4668 8.82227C18.9238 8.69336 19.2559 8.58008 19.4629 8.48242C19.6699 8.38086 19.8145 8.33008 19.8965 8.33008C20.0605 8.33008 20.1426 8.41211 20.1426 8.57617C20.1426 8.65039 20.082 8.73438 19.9609 8.82812C19.5625 9.125 18.8457 9.43359 17.8105 9.75391C16.7754 10.0742 15.8516 10.2344 15.0391 10.2344C14.5352 10.2344 14.1133 10.1543 13.7734 9.99414C13.4336 9.83398 13.2637 9.58984 13.2637 9.26172C13.2637 9.0625 13.4336 8.57422 13.7734 7.79688C14.4141 6.32422 14.7344 5.21484 14.7344 4.46875L14.7285 4.24609C14.7285 4.05078 14.918 3.95312 15.2969 3.95312L18.1914 3.88867C18.293 3.88867 18.3691 3.91992 18.4199 3.98242C18.4707 4.04102 18.4961 4.10742 18.4961 4.18164C18.4961 4.45117 18.373 4.89648 18.127 5.51758C17.8809 6.13477 17.6348 6.74219 17.3887 7.33984C17.1426 7.9375 17.0195 8.36523 17.0195 8.62305C17.0195 8.88086 17.1426 9.00977 17.3887 9.00977ZM26.418 3.95312L28.709 3.88867C28.8105 3.88867 28.8867 3.91992 28.9375 3.98242C28.9883 4.04102 29.0137 4.10742 29.0137 4.18164C29.0137 4.46289 28.9199 4.73633 28.7324 5.00195C28.5488 5.26367 28.3125 5.49414 28.0234 5.69336C27.7344 5.89258 27.3965 6.07812 27.0098 6.25C26.3145 6.55859 25.5605 6.79688 24.748 6.96484C25.3027 6.88281 25.7871 6.8418 26.2012 6.8418C27.1934 6.8418 27.6895 7.15234 27.6895 7.77344C27.6895 7.87109 27.6641 8.01758 27.6133 8.21289C27.5625 8.4043 27.5371 8.55859 27.5371 8.67578C27.5371 8.92578 27.6621 9.05078 27.9121 9.05078C28.0957 9.05078 28.3594 8.98438 28.7031 8.85156C29.0508 8.71484 29.3184 8.59375 29.5059 8.48828C29.6934 8.38281 29.8184 8.33008 29.8809 8.33008C29.9473 8.33008 30.0059 8.35156 30.0566 8.39453C30.1074 8.43359 30.1328 8.50586 30.1328 8.61133C30.1328 8.71289 30.0488 8.82422 29.8809 8.94531C29.3105 9.34766 28.627 9.66406 27.8301 9.89453C27.0332 10.1211 26.3184 10.2344 25.6855 10.2344C25.0566 10.2344 24.6309 10.1699 24.4082 10.041C24.1855 9.91602 24.0742 9.70703 24.0742 9.41406C24.0742 9.26562 24.1152 9.03906 24.1973 8.73438C24.2793 8.42578 24.3203 8.18164 24.3203 8.00195C24.3203 7.48242 24.0098 7.19531 23.3887 7.14062C22.9199 8.42188 22.6699 9.32031 22.6387 9.83594C22.6309 9.98047 22.5273 10.0527 22.3281 10.0527L19.3105 10.1172C19.2676 10.1172 19.2188 10.0898 19.1641 10.0352C19.1133 9.98438 19.0879 9.91992 19.0879 9.8418C19.0879 9.76367 19.2129 9.37109 19.4629 8.66406C19.7168 7.95703 19.9941 7.18945 20.2949 6.36133C20.5996 5.5332 20.877 4.67188 21.127 3.77734C21.3809 2.88281 21.5078 2.2168 21.5078 1.7793L21.502 1.61523C21.502 1.41992 21.6914 1.32227 22.0703 1.32227L24.7539 1.30469C24.8438 1.30469 24.916 1.33398 24.9707 1.39258C25.0293 1.44727 25.0586 1.50781 25.0586 1.57422C25.0586 1.91016 24.8906 2.62305 24.5547 3.71289C24.2188 4.80273 23.8984 5.75977 23.5938 6.58398C24.2969 6.40039 24.8496 6.11133 25.252 5.7168C25.6543 5.32227 25.8555 4.90625 25.8555 4.46875L25.8496 4.24609C25.8496 4.05078 26.0391 3.95312 26.418 3.95312ZM38.9336 8.33008C39.0703 8.33008 39.1387 8.39453 39.1387 8.52344C39.1387 8.64844 39.0449 8.76562 38.8574 8.875C38.6738 8.98047 38.4453 9.0957 38.1719 9.2207C37.8984 9.3418 37.5215 9.48633 37.041 9.6543C35.9355 10.041 34.6875 10.2344 33.2969 10.2344C30.6562 10.2344 29.3359 9.42188 29.3359 7.79688C29.3359 7.00391 29.5859 6.30078 30.0859 5.6875C30.5898 5.07031 31.2637 4.59961 32.1074 4.27539C32.9512 3.94727 33.8711 3.7832 34.8672 3.7832C35.8633 3.7832 36.5918 3.9375 37.0527 4.24609C37.5176 4.55469 37.75 4.97852 37.75 5.51758C37.75 6.07227 37.5273 6.52539 37.082 6.87695C36.6406 7.22852 36.0527 7.49023 35.3184 7.66211C34.5801 7.83398 33.7344 7.95508 32.7812 8.02539C32.8438 8.63086 33.2773 9.00781 34.082 9.15625C34.2891 9.19141 34.5078 9.20898 34.7383 9.20898C35.6523 9.20898 36.9707 8.93359 38.6934 8.38281C38.7988 8.34766 38.8789 8.33008 38.9336 8.33008ZM32.7871 7.38086C33.4668 7.19336 34.0039 6.90625 34.3984 6.51953C34.793 6.13281 34.9902 5.66602 34.9902 5.11914C34.9902 4.97461 34.9434 4.85938 34.8496 4.77344C34.7559 4.6875 34.6133 4.64453 34.4219 4.64453C34.2344 4.64453 34.0371 4.72656 33.8301 4.89062C33.627 5.05469 33.4551 5.26953 33.3145 5.53516C33.0176 6.08594 32.8418 6.70117 32.7871 7.38086ZM38.6992 9.54297C38.6016 9.49609 38.5527 9.39844 38.5527 9.25C38.5527 9.10156 38.6719 8.78516 38.9102 8.30078C39.1484 7.8125 39.3359 7.56836 39.4727 7.56836C39.5508 7.56836 39.6719 7.62305 39.8359 7.73242C40 7.83789 40.1895 7.9668 40.4043 8.11914C40.623 8.27148 40.8594 8.42188 41.1133 8.57031C41.7305 8.9375 42.3301 9.12109 42.9121 9.12109C43.2012 9.12109 43.4082 9.0625 43.5332 8.94531C43.6582 8.82812 43.7207 8.71094 43.7207 8.59375C43.7207 8.47266 43.6543 8.33789 43.5215 8.18945C43.3887 8.03711 43.2148 7.88086 43 7.7207C42.7891 7.56055 42.5547 7.39258 42.2969 7.2168C42.0391 7.03711 41.7812 6.84766 41.5234 6.64844C41.2656 6.44922 41.0312 6.25 40.8203 6.05078C40.3398 5.59766 40.0996 5.15625 40.0996 4.72656C40.0996 4.42188 40.1797 4.14648 40.3398 3.90039C40.5039 3.6543 40.7109 3.45508 40.9609 3.30273C41.2148 3.15039 41.502 3.02344 41.8223 2.92188C42.3965 2.73438 42.9883 2.64062 43.5977 2.64062C43.7656 2.64062 43.8906 2.66602 43.9727 2.7168C44.0547 2.76758 44.0957 2.82617 44.0957 2.89258C44.0957 2.95898 44.0664 3.06055 44.0078 3.19727C43.9492 3.33008 43.9199 3.44922 43.9199 3.55469C43.9199 3.66016 43.9902 3.79492 44.1309 3.95898C44.2754 4.12305 44.4609 4.29102 44.6875 4.46289C44.9141 4.63477 45.1641 4.81836 45.4375 5.01367C45.7109 5.20898 45.9844 5.41602 46.2578 5.63477C46.5312 5.85352 46.7812 6.07617 47.0078 6.30273C47.5195 6.81445 47.7754 7.31055 47.7754 7.79102C47.7754 8.26758 47.6504 8.66602 47.4004 8.98633C47.1543 9.30664 46.8105 9.55469 46.3691 9.73047C45.9277 9.90625 45.4434 10.0332 44.916 10.1113C44.3887 10.1934 43.7461 10.2344 42.9883 10.2344C42.2305 10.2344 41.3945 10.1562 40.4805 10C39.5703 9.83984 38.9766 9.6875 38.6992 9.54297ZM48.4023 3.80664C47.8906 3.19727 47.2559 2.74414 46.498 2.44727C45.7441 2.14648 44.957 1.99609 44.1367 1.99609C42.6328 1.99609 41.1836 2.2793 39.7891 2.8457C39.6016 2.91992 39.4688 2.95703 39.3906 2.95703C39.2344 2.95703 39.1562 2.88281 39.1562 2.73438C39.1562 2.61328 39.2598 2.46875 39.4668 2.30078C39.6777 2.13281 39.9785 1.96094 40.3691 1.78516C40.7637 1.60547 41.209 1.43945 41.7051 1.28711C42.8379 0.939453 44.0527 0.765625 45.3496 0.765625C47.2676 0.765625 48.7148 1.03516 49.6914 1.57422C49.7461 1.60547 49.7695 1.69922 49.7617 1.85547C49.7578 2.00781 49.6875 2.24414 49.5508 2.56445C49.4141 2.88477 49.248 3.18164 49.0527 3.45508C48.8613 3.72852 48.6973 3.86523 48.5605 3.86523C48.5254 3.82617 48.4727 3.80664 48.4023 3.80664ZM52.0703 1.32227L54.7539 1.30469C54.8438 1.30469 54.916 1.33398 54.9707 1.39258C55.0293 1.44727 55.0586 1.53906 55.0586 1.66797C55.0586 1.79688 54.9785 2.17578 54.8184 2.80469C54.6582 3.42969 54.4785 4.04297 54.2793 4.64453C54.791 4.42578 55.3574 4.22852 55.9785 4.05273C56.5996 3.87305 57.1582 3.7832 57.6543 3.7832C58.0293 3.7832 58.3711 3.88672 58.6797 4.09375C59.0234 4.32422 59.1953 4.67383 59.1953 5.14258C59.1953 5.60742 59.0137 6.23438 58.6504 7.02344C58.2871 7.8125 58.1055 8.31641 58.1055 8.53516C58.1055 8.85547 58.2598 9.01562 58.5684 9.01562C59.1777 9.01562 59.8672 8.81836 60.6367 8.42383C60.7539 8.36133 60.8496 8.33008 60.9238 8.33008C61.084 8.33008 61.1641 8.40234 61.1641 8.54688C61.1641 8.6875 61.0742 8.81445 60.8945 8.92773C60.7188 9.03711 60.4961 9.15625 60.2266 9.28516C59.957 9.41016 59.6191 9.54883 59.2129 9.70117C58.2637 10.0566 57.25 10.2344 56.1719 10.2344C55.0938 10.2344 54.5547 9.96875 54.5547 9.4375C54.5547 9.09375 54.75 8.48047 55.1406 7.59766C55.5352 6.71094 55.7324 6.11328 55.7324 5.80469C55.7324 5.43359 55.4609 5.24805 54.918 5.24805C54.6172 5.24805 54.3203 5.29492 54.0273 5.38867C53.3828 7.2793 52.9199 8.76172 52.6387 9.83594C52.6191 9.91016 52.5742 9.96484 52.5039 10C52.4375 10.0352 52.3789 10.0527 52.3281 10.0527L49.3105 10.1172C49.2676 10.1172 49.2188 10.0898 49.1641 10.0352C49.1133 9.98438 49.0879 9.91992 49.0879 9.8418C49.0879 9.76367 49.2129 9.37109 49.4629 8.66406C49.7168 7.95703 49.9941 7.18945 50.2949 6.36133C50.5996 5.5332 50.877 4.67188 51.127 3.77734C51.3809 2.88281 51.5078 2.2168 51.5078 1.7793L51.502 1.61523C51.502 1.41992 51.6914 1.32227 52.0703 1.32227ZM61.498 9.60742C60.7637 9.16602 60.3965 8.49609 60.3965 7.59766C60.3965 7.12891 60.4922 6.68945 60.6836 6.2793C60.8789 5.86523 61.1445 5.50781 61.4805 5.20703C61.8203 4.90625 62.2148 4.64844 62.6641 4.43359C63.5625 4 64.5918 3.7832 65.752 3.7832C68.0332 3.7832 69.2656 4.50586 69.4492 5.95117C69.7227 6.04102 70.0039 6.08594 70.293 6.08594C70.5859 6.08594 70.8301 6.06445 71.0254 6.02148C71.2207 5.97852 71.4043 5.91406 71.5762 5.82812C71.752 5.74219 71.877 5.69922 71.9512 5.69922C72.0996 5.69922 72.1738 5.77148 72.1738 5.91602C72.1738 6.06055 72.0586 6.21094 71.8281 6.36719C71.3945 6.66406 70.8203 6.8125 70.1055 6.8125C69.8359 6.8125 69.6172 6.79883 69.4492 6.77148C69.3242 7.75586 68.8164 8.57422 67.9258 9.22656C67.5 9.53906 66.9766 9.78516 66.3555 9.96484C65.7383 10.1445 65.0977 10.2344 64.4336 10.2344C63.7734 10.2344 63.207 10.1816 62.7344 10.0762C62.2617 9.97461 61.8496 9.81836 61.498 9.60742ZM63.625 8.11328C63.625 8.83594 63.8887 9.19727 64.416 9.19727C64.752 9.19727 65.0645 9.01367 65.3535 8.64648C65.6465 8.2793 65.873 7.82422 66.0332 7.28125C66.1973 6.73828 66.2793 6.18555 66.2793 5.62305C66.2793 5.05664 66.082 4.77344 65.6875 4.77344C65.3438 4.77344 65.0098 4.93555 64.6855 5.25977C64.3652 5.58398 64.1074 6.00586 63.9121 6.52539C63.7207 7.04102 63.625 7.57031 63.625 8.11328ZM72.1562 3.9707L74.8164 3.90625C74.918 3.90625 74.9941 3.9375 75.0449 4C75.0957 4.05859 75.1211 4.12695 75.1211 4.20508C75.1211 4.2793 75.1074 4.41016 75.0801 4.59766C75.0527 4.78125 75.0391 4.91602 75.0391 5.00195C75.7578 4.18945 76.7168 3.7832 77.916 3.7832C78.6465 3.7832 79.2207 3.9707 79.6387 4.3457C80.0605 4.7168 80.2715 5.24414 80.2715 5.92773C80.2715 7.25586 79.75 8.3418 78.707 9.18555C79.918 9.09961 80.8477 8.875 81.4961 8.51172C81.7109 8.39062 81.8691 8.33008 81.9707 8.33008C82.1035 8.33008 82.1699 8.40234 82.1699 8.54688C82.1699 8.64844 82.0977 8.75195 81.9531 8.85742C81.2891 9.32227 80.4336 9.66602 79.3867 9.88867C78.3438 10.1113 77.2207 10.2227 76.0176 10.2227C75.8691 10.2305 75.7578 10.2344 75.6836 10.2344C75.2695 10.2344 74.8555 10.1719 74.4414 10.0469C74.0273 9.92188 73.6836 9.74609 73.4102 9.51953C73.1406 10.3438 73.0059 11.2949 73.0059 12.373L73.0117 12.543C73.0117 12.7383 72.8223 12.8359 72.4434 12.8359L69.7188 12.9062C69.625 12.9062 69.5508 12.877 69.4961 12.8184C69.4414 12.7637 69.4141 12.7012 69.4141 12.6309C69.4141 11.9629 69.7793 10.668 70.5098 8.74609C71.2402 6.82031 71.6055 5.53125 71.6055 4.87891L71.582 4.39258C71.582 4.24805 71.6172 4.14258 71.6875 4.07617C71.7617 4.00586 71.918 3.9707 72.1562 3.9707ZM76.1875 5.27148C75.4531 5.27148 74.8398 5.83398 74.3477 6.95898C74.1211 7.47461 74.0078 7.89258 74.0078 8.21289C74.0078 8.5332 74.0605 8.75391 74.166 8.875C74.2754 8.99609 74.4863 9.05664 74.7988 9.05664C75.1152 9.05664 75.4551 8.91211 75.8184 8.62305C76.1855 8.33008 76.4805 7.96289 76.7031 7.52148C76.9258 7.08008 77.0371 6.68359 77.0371 6.33203C77.0371 5.97656 76.959 5.71094 76.8027 5.53516C76.6465 5.35938 76.4414 5.27148 76.1875 5.27148Z" fill="black"/>
</svg>
